<svg width="1017" xmlns="http://www.w3.org/2000/svg" height="1015" id="screenshot-5d0b865d-a2cc-8055-8008-310d5360f918" viewBox="0 0 1017 1015" xmlns:xlink="http://www.w3.org/1999/xlink" fill="none" version="1.1"><g id="shape-5d0b865d-a2cc-8055-8008-310d5360f918" rx="0" ry="0"><g id="shape-e4e068c3-062b-80f7-8008-322d218bfa0d"><g class="fills" id="fills-e4e068c3-062b-80f7-8008-322d218bfa0d"><path d="M501.9959716796875,4C779.05517578125,4,1003.991943359375,230.0548095703125,1003.991943359375,508.490966796875C1003.991943359375,786.92724609375,779.05517578125,1012.9820556640625,501.9959716796875,1012.9820556640625C224.9368896484375,1012.9820556640625,0,786.92724609375,0,508.490966796875C0,230.0548095703125,224.9368896484375,4,501.9959716796875,4" style="fill: rgb(7, 29, 73); fill-opacity: 1;"/></g><g id="strokes-da5c38c0-9547-8012-8008-322fb945294e-e4e068c3-062b-80f7-8008-322d218bfa0d" class="strokes"><g class="inner-stroke-shape"><defs><clipPath id="inner-stroke-render-2-e4e068c3-062b-80f7-8008-322d218bfa0d-0"><use href="#stroke-shape-render-2-e4e068c3-062b-80f7-8008-322d218bfa0d-0"/></clipPath><path d="M501.9959716796875,4C779.05517578125,4,1003.991943359375,230.0548095703125,1003.991943359375,508.490966796875C1003.991943359375,786.92724609375,779.05517578125,1012.9820556640625,501.9959716796875,1012.9820556640625C224.9368896484375,1012.9820556640625,0,786.92724609375,0,508.490966796875C0,230.0548095703125,224.9368896484375,4,501.9959716796875,4" id="stroke-shape-render-2-e4e068c3-062b-80f7-8008-322d218bfa0d-0" style="fill: none; stroke-width: 140; stroke: rgb(7, 29, 73); stroke-opacity: 1;"/></defs><use href="#stroke-shape-render-2-e4e068c3-062b-80f7-8008-322d218bfa0d-0" clip-path="url('#inner-stroke-render-2-e4e068c3-062b-80f7-8008-322d218bfa0d-0')"/></g></g></g><g id="shape-e4e068c3-062b-80f7-8008-322d39acaed6"><g class="fills" id="fills-e4e068c3-062b-80f7-8008-322d39acaed6"><path d="M502,0C786.236328125,0,1017,227.403076171875,1017,507.5C1017,787.596923828125,786.236328125,1015,502,1015C502,826.857666015625,502,329.51934814453125,502,0" style="fill: rgb(255, 255, 255); fill-opacity: 1;"/></g><g id="strokes-da5c38c0-9547-8012-8008-322fb94629fa-e4e068c3-062b-80f7-8008-322d39acaed6" class="strokes"><g class="inner-stroke-shape"><defs><clipPath id="inner-stroke-render-3-e4e068c3-062b-80f7-8008-322d39acaed6-0"><use href="#stroke-shape-render-3-e4e068c3-062b-80f7-8008-322d39acaed6-0"/></clipPath><path d="M502,0C786.236328125,0,1017,227.403076171875,1017,507.5C1017,787.596923828125,786.236328125,1015,502,1015C502,826.857666015625,502,329.51934814453125,502,0" id="stroke-shape-render-3-e4e068c3-062b-80f7-8008-322d39acaed6-0" style="fill: none; stroke-width: 140; stroke: rgb(255, 255, 255); stroke-opacity: 1;"/></defs><use href="#stroke-shape-render-3-e4e068c3-062b-80f7-8008-322d39acaed6-0" clip-path="url('#inner-stroke-render-3-e4e068c3-062b-80f7-8008-322d39acaed6-0')"/></g></g></g></g></svg>